<svg width="30" height="30" viewBox="0 0 40 40" fill="none" xmlns="http://www.w3.org/2000/svg">
    <path d="M0 10C0 4.47715 4.47715 0 10 0H40V40H10C4.47715 40 0 35.5228 0 30V10Z" fill="#1271D0"/>
    <path d="M10.0946 25.2V23.625L14.1446 19.8C14.4646 19.51 14.6996 19.25 14.8496 19.02C14.9996 18.79 15.0996 18.58 15.1496 18.39C15.2096 18.2 15.2396 18.025 15.2396 17.865C15.2396 17.445 15.0946 17.125 14.8046 16.905C14.5246 16.675 14.1096 16.56 13.5596 16.56C13.1196 16.56 12.7096 16.645 12.3296 16.815C11.9596 16.985 11.6446 17.25 11.3846 17.61L9.61461 16.47C10.0146 15.87 10.5746 15.395 11.2946 15.045C12.0146 14.695 12.8446 14.52 13.7846 14.52C14.5646 14.52 15.2446 14.65 15.8246 14.91C16.4146 15.16 16.8696 15.515 17.1896 15.975C17.5196 16.435 17.6846 16.985 17.6846 17.625C17.6846 17.965 17.6396 18.305 17.5496 18.645C17.4696 18.975 17.2996 19.325 17.0396 19.695C16.7896 20.065 16.4196 20.48 15.9296 20.94L12.5696 24.105L12.1046 23.22H18.0296V25.2H10.0946ZM19.6923 25.2V14.7H24.4623C25.6023 14.7 26.6073 14.92 27.4773 15.36C28.3473 15.79 29.0273 16.395 29.5173 17.175C30.0073 17.955 30.2523 18.88 30.2523 19.95C30.2523 21.01 30.0073 21.935 29.5173 22.725C29.0273 23.505 28.3473 24.115 27.4773 24.555C26.6073 24.985 25.6023 25.2 24.4623 25.2H19.6923ZM22.1223 23.205H24.3423C25.0423 23.205 25.6473 23.075 26.1573 22.815C26.6773 22.545 27.0773 22.165 27.3573 21.675C27.6473 21.185 27.7923 20.61 27.7923 19.95C27.7923 19.28 27.6473 18.705 27.3573 18.225C27.0773 17.735 26.6773 17.36 26.1573 17.1C25.6473 16.83 25.0423 16.695 24.3423 16.695H22.1223V23.205Z" fill="white"/>
</svg>
