<svg width="30" height="30" viewBox="0 0 40 40" fill="none" xmlns="http://www.w3.org/2000/svg">
    <path d="M0 0H30C35.5228 0 40 4.47715 40 10V30C40 35.5228 35.5228 40 30 40H0V0Z" fill="#1271D0" fill-opacity="0.4"/>
    <path d="M13.5896 25.38C12.8596 25.38 12.1346 25.285 11.4146 25.095C10.6946 24.895 10.0846 24.615 9.58461 24.255L10.5296 22.395C10.9296 22.685 11.3946 22.915 11.9246 23.085C12.4546 23.255 12.9896 23.34 13.5296 23.34C14.1396 23.34 14.6196 23.22 14.9696 22.98C15.3196 22.74 15.4946 22.41 15.4946 21.99C15.4946 21.59 15.3396 21.275 15.0296 21.045C14.7196 20.815 14.2196 20.7 13.5296 20.7H12.4196V19.095L15.3446 15.78L15.6146 16.65H10.1096V14.7H17.4596V16.275L14.5496 19.59L13.3196 18.885H14.0246C15.3146 18.885 16.2896 19.175 16.9496 19.755C17.6096 20.335 17.9396 21.08 17.9396 21.99C17.9396 22.58 17.7846 23.135 17.4746 23.655C17.1646 24.165 16.6896 24.58 16.0496 24.9C15.4096 25.22 14.5896 25.38 13.5896 25.38ZM19.7216 25.2V14.7H24.4916C25.6316 14.7 26.6366 14.92 27.5066 15.36C28.3766 15.79 29.0566 16.395 29.5466 17.175C30.0366 17.955 30.2816 18.88 30.2816 19.95C30.2816 21.01 30.0366 21.935 29.5466 22.725C29.0566 23.505 28.3766 24.115 27.5066 24.555C26.6366 24.985 25.6316 25.2 24.4916 25.2H19.7216ZM22.1516 23.205H24.3716C25.0716 23.205 25.6766 23.075 26.1866 22.815C26.7066 22.545 27.1066 22.165 27.3866 21.675C27.6766 21.185 27.8216 20.61 27.8216 19.95C27.8216 19.28 27.6766 18.705 27.3866 18.225C27.1066 17.735 26.7066 17.36 26.1866 17.1C25.6766 16.83 25.0716 16.695 24.3716 16.695H22.1516V23.205Z" fill="#303030"/>
</svg>
