<svg width="31" height="26" viewBox="0 0 31 26" fill="none" xmlns="http://www.w3.org/2000/svg">
    <path fill-rule="evenodd" clip-rule="evenodd" d="M22.0426 25.9983C22.2888 25.9983 22.525 25.9005 22.6991 25.7264C22.8732 25.5523 22.9711 25.3161 22.9711 25.0699V3.1714L28.8129 9.01508C28.9872 9.18942 29.2237 9.28736 29.4702 9.28736C29.7168 9.28736 29.9532 9.18942 30.1276 9.01508C30.3019 8.84074 30.3998 8.60429 30.3998 8.35774C30.3998 8.11118 30.3019 7.87473 30.1276 7.70039L22.6999 0.272768C22.6137 0.186304 22.5112 0.117705 22.3984 0.070899C22.2856 0.024093 22.1647 0 22.0426 0C21.9205 0 21.7996 0.024093 21.6868 0.070899C21.574 0.117705 21.4715 0.186304 21.3853 0.272768L13.9576 7.70039C13.7833 7.87473 13.6854 8.11118 13.6854 8.35774C13.6854 8.60429 13.7833 8.84074 13.9576 9.01508C14.132 9.18942 14.3684 9.28736 14.615 9.28736C14.8615 9.28736 15.098 9.18942 15.2723 9.01508L21.1141 3.1714V25.0699C21.1141 25.3161 21.212 25.5523 21.3861 25.7264C21.5602 25.9005 21.7964 25.9983 22.0426 25.9983ZM9.04426 0.00165965C9.2905 0.00165965 9.52666 0.0994785 9.70078 0.273597C9.8749 0.447716 9.97271 0.683872 9.97271 0.930113V22.8286L15.8145 16.9849C15.9889 16.8106 16.2253 16.7126 16.4719 16.7126C16.7184 16.7126 16.9549 16.8106 17.1292 16.9849C17.3036 17.1593 17.4015 17.3957 17.4015 17.6423C17.4015 17.8888 17.3036 18.1253 17.1292 18.2996L9.70161 25.7272C9.61536 25.8137 9.51291 25.8823 9.40011 25.9291C9.28731 25.9759 9.16638 26 9.04426 26C8.92214 26 8.80121 25.9759 8.68842 25.9291C8.57562 25.8823 8.47316 25.8137 8.38692 25.7272L0.959293 18.2996C0.784954 18.1253 0.687012 17.8888 0.687012 17.6423C0.687012 17.3957 0.784954 17.1593 0.959293 16.9849C1.13363 16.8106 1.37009 16.7126 1.61664 16.7126C1.86319 16.7126 2.09964 16.8106 2.27398 16.9849L8.11581 22.8286V0.930113C8.11581 0.683872 8.21363 0.447716 8.38775 0.273597C8.56186 0.0994785 8.79802 0.00165965 9.04426 0.00165965Z" fill="#9D9D9D"/>
</svg>
