<svg width="18" height="10" viewBox="0 0 18 10" fill="none" xmlns="http://www.w3.org/2000/svg">
    <path d="M16.7657 0.382399C16.524 0.137549 16.1963 0 15.8546 0C15.5128 0 15.1851 0.137549 14.9434 0.382399L8.56386 6.84743L2.18434 0.382399C1.94127 0.144488 1.61572 0.0128435 1.2778 0.0158193C0.939884 0.018795 0.61664 0.156153 0.377687 0.398309C0.138735 0.640464 0.00319672 0.968042 0.000259399 1.31049C-0.00267792 1.65294 0.127224 1.98285 0.361988 2.22918L7.65268 9.6176C7.89437 9.86245 8.22212 10 8.56386 10C8.9056 10 9.23335 9.86245 9.47503 9.6176L16.7657 2.22918C17.0073 1.98425 17.1431 1.65211 17.1431 1.30579C17.1431 0.959466 17.0073 0.627323 16.7657 0.382399Z" fill="black"/>
</svg>
