<svg width="18" height="10" viewBox="0 0 18 10" fill="none" xmlns="http://www.w3.org/2000/svg">
    <path d="M0.377341 9.6176C0.619025 9.86245 0.946775 10 1.28852 10C1.63026 10 1.95801 9.86245 2.19969 9.6176L8.57921 3.15257L14.9587 9.6176C15.2018 9.85551 15.5273 9.98716 15.8653 9.98418C16.2032 9.9812 16.5264 9.84385 16.7654 9.60169C17.0043 9.35954 17.1399 9.03196 17.1428 8.68951C17.1457 8.34706 17.0158 8.01715 16.7811 7.77082L9.49038 0.382399C9.2487 0.137549 8.92095 0 8.57921 0C8.23747 0 7.90972 0.137549 7.66803 0.382399L0.377341 7.77082C0.13573 8.01575 0 8.34789 0 8.69421C0 9.04053 0.13573 9.37268 0.377341 9.6176Z" fill="black"/>
</svg>
