<svg width="25" height="25" viewBox="0 0 25 25" fill="none" xmlns="http://www.w3.org/2000/svg">
    <rect width="25" height="25" rx="5" fill="#1271D0"/>
    <path d="M18.475 9.4375L16.3 6.71875C16.183 6.57258 16.0346 6.45457 15.8658 6.37343C15.6971 6.2923 15.5122 6.25012 15.325 6.25H7.5C7.16848 6.25 6.85054 6.3817 6.61612 6.61612C6.3817 6.85054 6.25 7.16848 6.25 7.5V17.5C6.25 17.8315 6.3817 18.1495 6.61612 18.3839C6.85054 18.6183 7.16848 18.75 7.5 18.75H17.5C17.8315 18.75 18.1495 18.6183 18.3839 18.3839C18.6183 18.1495 18.75 17.8315 18.75 17.5V10.2188C18.7498 9.93465 18.6528 9.6591 18.475 9.4375ZM10.625 7.5H14.375V9.375H10.625V7.5ZM14.375 17.5H10.625V13.75H14.375V17.5ZM15.625 17.5V13.75C15.625 13.4185 15.4933 13.1005 15.2589 12.8661C15.0245 12.6317 14.7065 12.5 14.375 12.5H10.625C10.2935 12.5 9.97554 12.6317 9.74112 12.8661C9.5067 13.1005 9.375 13.4185 9.375 13.75V17.5H7.5V7.5H9.375V9.375C9.375 9.70652 9.5067 10.0245 9.74112 10.2589C9.97554 10.4933 10.2935 10.625 10.625 10.625H14.375C14.7065 10.625 15.0245 10.4933 15.2589 10.2589C15.4933 10.0245 15.625 9.70652 15.625 9.375V7.875L17.5 10.2188V17.5H15.625Z" fill="white"/>
</svg>
