<svg width="27" height="25" viewBox="0 0 27 25" fill="none" xmlns="http://www.w3.org/2000/svg">
    <path d="M0.878418 21.875C0.878418 22.7038 1.22243 23.4987 1.83478 24.0847C2.44713 24.6708 3.27765 25 4.14364 25H23.735C24.601 25 25.4315 24.6708 26.0438 24.0847C26.6562 23.4987 27.0002 22.7038 27.0002 21.875V3.125C27.0002 2.2962 26.6562 1.50134 26.0438 0.915291C25.4315 0.32924 24.601 0 23.735 0L4.14364 0C3.27765 0 2.44713 0.32924 1.83478 0.915291C1.22243 1.50134 0.878418 2.2962 0.878418 3.125L0.878418 21.875ZM8.22517 11.7188H17.6829L14.1777 8.36562C14.0244 8.21893 13.9383 8.01996 13.9383 7.8125C13.9383 7.60504 14.0244 7.40607 14.1777 7.25937C14.331 7.11268 14.5388 7.03026 14.7556 7.03026C14.9724 7.03026 15.1803 7.11268 15.3336 7.25937L20.2314 11.9469C20.3074 12.0194 20.3677 12.1057 20.4089 12.2006C20.45 12.2955 20.4712 12.3972 20.4712 12.5C20.4712 12.6028 20.45 12.7045 20.4089 12.7994C20.3677 12.8943 20.3074 12.9806 20.2314 13.0531L15.3336 17.7406C15.1803 17.8873 14.9724 17.9697 14.7556 17.9697C14.5388 17.9697 14.331 17.8873 14.1777 17.7406C14.0244 17.5939 13.9383 17.395 13.9383 17.1875C13.9383 16.98 14.0244 16.7811 14.1777 16.6344L17.6829 13.2812H8.22517C8.00868 13.2812 7.80104 13.1989 7.64796 13.0524C7.49487 12.9059 7.40887 12.7072 7.40887 12.5C7.40887 12.2928 7.49487 12.0941 7.64796 11.9476C7.80104 11.8011 8.00868 11.7188 8.22517 11.7188Z" fill="#1271D0"/>
</svg>
