<svg width="25" height="25" viewBox="0 0 25 25" fill="none" xmlns="http://www.w3.org/2000/svg">
    <rect width="25" height="25" rx="5" fill="#1271D0"/>
    <path d="M12.917 5.83331C13.1242 5.83331 13.3229 5.91562 13.4694 6.06214C13.6159 6.20865 13.6982 6.40736 13.6982 6.61456V11.3021H18.3857C18.5929 11.3021 18.7917 11.3844 18.9382 11.5309C19.0847 11.6774 19.167 11.8761 19.167 12.0833C19.167 12.2905 19.0847 12.4892 18.9382 12.6357C18.7917 12.7823 18.5929 12.8646 18.3857 12.8646H13.6982V17.5521C13.6982 17.7593 13.6159 17.958 13.4694 18.1045C13.3229 18.251 13.1242 18.3333 12.917 18.3333C12.7098 18.3333 12.5111 18.251 12.3646 18.1045C12.2181 17.958 12.1357 17.7593 12.1357 17.5521V12.8646H7.44824C7.24104 12.8646 7.04233 12.7823 6.89582 12.6357C6.7493 12.4892 6.66699 12.2905 6.66699 12.0833C6.66699 11.8761 6.7493 11.6774 6.89582 11.5309C7.04233 11.3844 7.24104 11.3021 7.44824 11.3021H12.1357V6.61456C12.1357 6.40736 12.2181 6.20865 12.3646 6.06214C12.5111 5.91562 12.7098 5.83331 12.917 5.83331Z" fill="white"/>
</svg>
