<svg width="50" height="50" viewBox="0 0 50 50" fill="none" xmlns="http://www.w3.org/2000/svg">
    <rect width="50" height="50" rx="10" fill="#1271D0" fill-opacity="0.4"/>
    <path d="M14.4045 19.6365V19.0065L16.8195 15.8495H17.7925L15.4125 19.0065L14.9575 18.8665H18.8425V19.6365H14.4045ZM17.0925 20.7495V19.6365L17.1205 18.8665V17.8795H17.9745V20.7495H17.0925ZM21.2695 20.8195C20.8821 20.8195 20.5321 20.7215 20.2195 20.5255C19.9115 20.3295 19.6688 20.0448 19.4915 19.6715C19.3141 19.2935 19.2255 18.8362 19.2255 18.2995C19.2255 17.7628 19.3141 17.3078 19.4915 16.9345C19.6688 16.5565 19.9115 16.2695 20.2195 16.0735C20.5321 15.8775 20.8821 15.7795 21.2695 15.7795C21.6615 15.7795 22.0115 15.8775 22.3195 16.0735C22.6275 16.2695 22.8701 16.5565 23.0475 16.9345C23.2295 17.3078 23.3205 17.7628 23.3205 18.2995C23.3205 18.8362 23.2295 19.2935 23.0475 19.6715C22.8701 20.0448 22.6275 20.3295 22.3195 20.5255C22.0115 20.7215 21.6615 20.8195 21.2695 20.8195ZM21.2695 20.0285C21.4981 20.0285 21.6965 19.9678 21.8645 19.8465C22.0325 19.7205 22.1631 19.5292 22.2565 19.2725C22.3545 19.0158 22.4035 18.6915 22.4035 18.2995C22.4035 17.9028 22.3545 17.5785 22.2565 17.3265C22.1631 17.0698 22.0325 16.8808 21.8645 16.7595C21.6965 16.6335 21.4981 16.5705 21.2695 16.5705C21.0501 16.5705 20.8541 16.6335 20.6815 16.7595C20.5135 16.8808 20.3805 17.0698 20.2825 17.3265C20.1891 17.5785 20.1425 17.9028 20.1425 18.2995C20.1425 18.6915 20.1891 19.0158 20.2825 19.2725C20.3805 19.5292 20.5135 19.7205 20.6815 19.8465C20.8541 19.9678 21.0501 20.0285 21.2695 20.0285ZM26.15 20.7495V17.0115H27.067L28.572 19.6645H28.208L29.79 17.0115H30.609L30.616 20.7495H29.825V17.9495L29.965 18.0405L28.565 20.3575H28.187L26.78 17.9775L26.948 17.9355V20.7495H26.15ZM31.7897 20.7495V17.0115H32.7067L34.2117 19.6645H33.8477L35.4297 17.0115H36.2487L36.2557 20.7495H35.4647V17.9495L35.6047 18.0405L34.2047 20.3575H33.8267L32.4197 17.9775L32.5877 17.9355V20.7495H31.7897Z" fill="#303030"/>
    <line x1="5.41602" y1="28.9995" x2="42.916" y2="28.9995" stroke="#303030" stroke-width="2"/>
    <line x1="6.41602" y1="22.4995" x2="6.41602" y2="36.2495" stroke="#303030" stroke-width="2"/>
    <line x1="43.915" y1="22.4993" x2="43.915" y2="36.2493" stroke="#303030" stroke-width="2"/>
</svg>
