<svg width="40" height="40" viewBox="0 0 40 40" fill="none" xmlns="http://www.w3.org/2000/svg">
    <rect x="0.5" y="0.5" width="39" height="39" rx="9.5" stroke="#9D9D9D"/>
    <path d="M32.7875 13.1222L26.0625 19.9722C26.0125 20.0222 26.0125 20.0972 26.0625 20.1472L30.7687 25.1597C31.0875 25.4784 31.0875 25.9909 30.7687 26.3097C30.6125 26.4659 30.4 26.5472 30.1938 26.5472C29.9875 26.5472 29.775 26.4659 29.6187 26.3097L24.9312 21.3159C24.8813 21.2659 24.8 21.2659 24.75 21.3159L23.6063 22.4784C22.65 23.4472 21.3812 23.9847 20.0187 23.9909C18.6375 23.9972 17.325 23.4159 16.3562 22.4347L15.2563 21.3159C15.2063 21.2659 15.125 21.2659 15.075 21.3159L10.3875 26.3097C10.2312 26.4659 10.0187 26.5472 9.8125 26.5472C9.60625 26.5472 9.39375 26.4659 9.2375 26.3097C8.91875 25.9909 8.91875 25.4784 9.2375 25.1597L13.9438 20.1472C13.9875 20.0972 13.9875 20.0222 13.9438 19.9722L7.2125 13.1222C7.13125 13.0409 7 13.0972 7 13.2097V26.9159C7 28.0159 7.9 28.9159 9 28.9159H31C32.1 28.9159 33 28.0159 33 26.9159V13.2097C33 13.0972 32.8625 13.0472 32.7875 13.1222Z" fill="#9D9D9D"/>
    <path d="M20.0001 22.4438C20.9251 22.4438 21.7938 22.0813 22.4438 21.4188L32.2501 11.4375C31.9063 11.1625 31.4813 11 31.0126 11H8.99385C8.5251 11 8.09385 11.1625 7.75635 11.4375L17.5626 21.4188C18.2063 22.075 19.0751 22.4438 20.0001 22.4438Z" fill="#9D9D9D"/>
</svg>
