<svg width="26" height="26" viewBox="0 0 26 26" fill="none" xmlns="http://www.w3.org/2000/svg">
    <g clip-path="url(#clip0_197_481)">
        <path d="M19.0807 16.8089C20.6542 14.6618 21.359 11.9997 21.054 9.35529C20.749 6.71086 19.4568 4.27909 17.4359 2.54651C15.4149 0.813916 12.8143 -0.0917251 10.1544 0.0107688C7.49437 0.113263 4.97117 1.21633 3.08956 3.09929C1.20794 4.98226 0.106676 7.50624 0.00608577 10.1663C-0.0945047 12.8264 0.812997 15.4263 2.54703 17.446C4.28107 19.4657 6.71375 20.7562 9.3584 21.0592C12.003 21.3623 14.6646 20.6557 16.8106 19.0807H16.809C16.8577 19.1457 16.9097 19.2074 16.9682 19.2675L23.2245 25.5238C23.5292 25.8287 23.9425 26.0001 24.3736 26.0002C24.8047 26.0004 25.2181 25.8293 25.5231 25.5246C25.828 25.2199 25.9994 24.8066 25.9995 24.3755C25.9997 23.9444 25.8286 23.531 25.5239 23.226L19.2676 16.9698C19.2095 16.911 19.1471 16.8583 19.0807 16.8089ZM19.5 10.5624C19.5 11.7361 19.2688 12.8983 18.8197 13.9827C18.3705 15.067 17.7122 16.0523 16.8823 16.8822C16.0523 17.7121 15.0671 18.3704 13.9827 18.8196C12.8984 19.2687 11.7362 19.4999 10.5625 19.4999C9.38881 19.4999 8.22661 19.2687 7.14226 18.8196C6.05791 18.3704 5.07265 17.7121 4.24273 16.8822C3.4128 16.0523 2.75447 15.067 2.30532 13.9827C1.85617 12.8983 1.62499 11.7361 1.62499 10.5624C1.62499 8.19205 2.56662 5.91876 4.24273 4.24265C5.91883 2.56655 8.19212 1.62492 10.5625 1.62492C12.9329 1.62492 15.2062 2.56655 16.8823 4.24265C18.5584 5.91876 19.5 8.19205 19.5 10.5624Z" fill="#9D9D9D"/>
    </g>
    <defs>
        <clipPath id="clip0_197_481">
            <rect width="26" height="26" fill="white"/>
        </clipPath>
    </defs>
</svg>
